<svg viewBox="0 0 980 580" xmlns="http://www.w3.org/2000/svg" font-family="-apple-system, Segoe UI, Roboto, sans-serif"><defs><marker id="arrow" markerWidth="9" markerHeight="9" refX="6" refY="3" orient="auto" markerUnits="strokeWidth"><path d="M0,0 L6,3 L0,6 Z" fill="#64748b"/></marker><style>.t{font-size:12.5px;font-weight:700;fill:#0f172a}.d{font-size:10.5px;fill:#334155}.lbl{font-size:10px;fill:#475569;font-style:italic}</style></defs><rect x="0" y="0" width="980" height="580" fill="#ffffff"/><g transform="translate(690,16)"><rect width="14" height="14" rx="3" fill="#ccfbf1" stroke="#0d9488"/><text x="20" y="11" class="lbl">teal = niveau du score</text><rect y="22" width="14" height="14" rx="3" fill="#ffe4e0" stroke="#e26d5a"/><text x="20" y="33" class="lbl">corail = finalité</text></g><rect x="330" y="20" width="320" height="34" rx="8" fill="#dbeafe" stroke="#2563eb"/><text x="490" y="40" text-anchor="middle" class="t">Données d'entrée</text><rect x="70" y="74" width="380" height="58" rx="8" fill="#eff6ff" stroke="#3b82f6"/><rect x="530" y="74" width="380" height="58" rx="8" fill="#eff6ff" stroke="#3b82f6"/><text x="260" y="92" text-anchor="middle" class="t">Features (y)</text><text x="720" y="92" text-anchor="middle" class="t">Covariables (x)</text><text x="85" y="112" class="d">non rapporté (revue)</text><text x="85" y="128" class="d">Phénotypes IRM discutés en général</text><text x="545" y="112" class="d">non rapporté (revue)</text><text x="545" y="128" class="d">Âge, sexe (cadre général)</text><line x1="490" y1="54" x2="260" y2="74" stroke="#64748b" marker-end="url(#arrow)"/><line x1="490" y1="54" x2="720" y2="74" stroke="#64748b" marker-end="url(#arrow)"/><line x1="260" y1="132" x2="485" y2="156" stroke="#64748b"/><line x1="720" y1="132" x2="495" y2="156" stroke="#64748b"/><rect x="280" y="156" width="420" height="74" rx="8" fill="#ede9fe" stroke="#7c3aed"/><text x="490" y="176" text-anchor="middle" class="t">Modélisation normative</text><text x="295" y="194" class="d">Revue des méthodes normatives</text><text x="295" y="210" class="d">(bayésien, processus gaussiens, etc.)</text><text x="295" y="226" class="d">Aucune appliquée empiriquement</text><line x1="490" y1="154" x2="490" y2="156" stroke="#64748b" marker-end="url(#arrow)"/><rect x="300" y="254" width="380" height="74" rx="8" fill="#fef3c7" stroke="#d97706"/><text x="490" y="274" text-anchor="middle" class="t">Scores déviants</text><text x="315" y="292" class="d">Principe des scores de déviation</text><text x="315" y="308" class="d">Présenté, non calculé</text><text x="315" y="324" class="d">non rapporté</text><line x1="490" y1="230" x2="490" y2="254" stroke="#64748b" marker-end="url(#arrow)"/><rect x="340" y="358" width="300" height="42" rx="8" fill="#ccfbf1" stroke="#0d9488"/><text x="490" y="376" text-anchor="middle" class="t">Cadre conceptuel (revue)</text><text x="355" y="396" class="d">Pas de scores empiriques</text><line x1="490" y1="328" x2="490" y2="358" stroke="#64748b" marker-end="url(#arrow)"/><rect x="340" y="424" width="300" height="50" rx="8" fill="#ffe4e0" stroke="#e26d5a"/><text x="490" y="443" text-anchor="middle" class="t">Usages proposés</text><text x="355" y="462" class="d">Stratification, suivi, biomarqueurs (perspectives)</text><line x1="490" y1="400" x2="490" y2="424" stroke="#64748b" marker-end="url(#arrow)"/><rect x="290" y="498" width="400" height="58" rx="8" fill="#ffffff" stroke="#475569" stroke-dasharray="6 4"/><text x="490" y="518" text-anchor="middle" class="t">Application clinique</text><text x="305" y="536" class="d">Traumatisme cranio-cérébral (TBI)</text><text x="305" y="552" class="d">Évaluation individuelle plaidée</text><line x1="490" y1="474" x2="490" y2="498" stroke="#64748b" marker-end="url(#arrow)"/></svg>