<svg viewBox="0 0 980 670" xmlns="http://www.w3.org/2000/svg" font-family="-apple-system, Segoe UI, Roboto, sans-serif"><defs><marker id="arrow" markerWidth="9" markerHeight="9" refX="6" refY="3" orient="auto" markerUnits="strokeWidth"><path d="M0,0 L6,3 L0,6 Z" fill="#64748b"/></marker><style>.t{font-size:12.5px;font-weight:700;fill:#0f172a}.d{font-size:10.5px;fill:#334155}.lbl{font-size:10px;fill:#475569;font-style:italic}</style></defs><rect x="0" y="0" width="980" height="670" fill="#ffffff"/><g transform="translate(690,16)"><rect width="14" height="14" rx="3" fill="#ccfbf1" stroke="#0d9488"/><text x="20" y="11" class="lbl">teal = niveau du score</text><rect y="22" width="14" height="14" rx="3" fill="#ffe4e0" stroke="#e26d5a"/><text x="20" y="33" class="lbl">corail = finalité</text></g><rect x="330" y="20" width="320" height="34" rx="8" fill="#dbeafe" stroke="#2563eb"/><text x="490" y="40" text-anchor="middle" class="t">Données d'entrée</text><rect x="70" y="74" width="380" height="74" rx="8" fill="#eff6ff" stroke="#3b82f6"/><rect x="530" y="74" width="380" height="74" rx="8" fill="#eff6ff" stroke="#3b82f6"/><text x="260" y="92" text-anchor="middle" class="t">Features (y)</text><text x="720" y="92" text-anchor="middle" class="t">Covariables (x)</text><text x="85" y="112" class="d">Morphométrie structurelle (épaisseur + volumes)</text><text x="85" y="128" class="d">FreeSurfer 5.3 ; par région</text><text x="85" y="144" class="d">Par sujet</text><text x="545" y="112" class="d">Âge, sexe (aussi prédits)</text><text x="545" y="128" class="d">Niveau sujet</text><line x1="490" y1="54" x2="260" y2="74" stroke="#64748b" marker-end="url(#arrow)"/><line x1="490" y1="54" x2="720" y2="74" stroke="#64748b" marker-end="url(#arrow)"/><line x1="260" y1="148" x2="485" y2="172" stroke="#64748b"/><line x1="720" y1="148" x2="495" y2="172" stroke="#64748b"/><rect x="280" y="172" width="420" height="74" rx="8" fill="#ede9fe" stroke="#7c3aed"/><text x="490" y="192" text-anchor="middle" class="t">Modélisation normative</text><text x="295" y="210" class="d">Autoencodeur profond parcimonieux</text><text x="295" y="226" class="d">Entraîné sur contrôles sains (multi-échantillons)</text><text x="295" y="242" class="d">Déviation = erreur de reconstruction</text><line x1="490" y1="170" x2="490" y2="172" stroke="#64748b" marker-end="url(#arrow)"/><rect x="300" y="270" width="380" height="74" rx="8" fill="#fef3c7" stroke="#d97706"/><text x="490" y="290" text-anchor="middle" class="t">Scores déviants</text><text x="315" y="308" class="d">Erreur de reconstruction</text><text x="315" y="324" class="d">Global par sujet + décomposable par région</text><text x="315" y="340" class="d">Plus élevée chez les patients</text><line x1="490" y1="246" x2="490" y2="270" stroke="#64748b" marker-end="url(#arrow)"/><rect x="130" y="374" width="300" height="42" rx="8" fill="#ccfbf1" stroke="#0d9488"/><text x="280" y="392" text-anchor="middle" class="t">Global par sujet</text><text x="145" y="412" class="d">Erreur de reconstruction globale</text><line x1="430" y1="344" x2="280" y2="374" stroke="#64748b" marker-end="url(#arrow)"/><rect x="130" y="440" width="300" height="50" rx="8" fill="#ffe4e0" stroke="#e26d5a"/><text x="280" y="459" text-anchor="middle" class="t">Détection d'atypies</text><text x="145" y="478" class="d">Métrique de déviation individuelle</text><line x1="280" y1="416" x2="280" y2="440" stroke="#64748b" marker-end="url(#arrow)"/><rect x="130" y="514" width="300" height="50" rx="8" fill="#ffe4e0" stroke="#e26d5a"/><text x="280" y="533" text-anchor="middle" class="t">Comparaison de groupes</text><text x="145" y="552" class="d">Patients SCZ/ASD vs contrôles</text><line x1="280" y1="490" x2="280" y2="514" stroke="#64748b" marker-end="url(#arrow)"/><rect x="550" y="374" width="300" height="42" rx="8" fill="#ccfbf1" stroke="#0d9488"/><text x="700" y="392" text-anchor="middle" class="t">Par région</text><text x="565" y="412" class="d">Erreur par région</text><line x1="550" y1="344" x2="700" y2="374" stroke="#64748b" marker-end="url(#arrow)"/><rect x="550" y="440" width="300" height="50" rx="8" fill="#ffe4e0" stroke="#e26d5a"/><text x="700" y="459" text-anchor="middle" class="t">Localisation</text><text x="565" y="478" class="d">Régions les plus déviantes</text><line x1="700" y1="416" x2="700" y2="440" stroke="#64748b" marker-end="url(#arrow)"/><rect x="290" y="588" width="400" height="58" rx="8" fill="#ffffff" stroke="#475569" stroke-dasharray="6 4"/><text x="490" y="608" text-anchor="middle" class="t">Application clinique</text><text x="305" y="626" class="d">Schizophrénie et autisme</text><text x="305" y="642" class="d">Patterns structurels anormaux individuels</text><line x1="280" y1="564" x2="430" y2="588" stroke="#64748b" marker-end="url(#arrow)"/><line x1="700" y1="564" x2="550" y2="588" stroke="#64748b" marker-end="url(#arrow)"/></svg>